<svg xmlns="http://www.w3.org/2000/svg" viewBox="0 0 1440 320"><path fill="#0099ff" fill-opacity="1" d="M0,64L16,80C32,96,64,128,96,122.7C128,117,160,75,192,69.3C224,64,256,96,288,122.7C320,149,352,171,384,160C416,149,448,107,480,74.7C512,43,544,21,576,37.3C608,53,640,107,672,128C704,149,736,139,768,160C800,181,832,235,864,266.7C896,299,928,309,960,304C992,299,1024,277,1056,245.3C1088,213,1120,171,1152,154.7C1184,139,1216,149,1248,154.7C1280,160,1312,160,1344,144C1376,128,1408,96,1424,80L1440,64L1440,0L1424,0C1408,0,1376,0,1344,0C1312,0,1280,0,1248,0C1216,0,1184,0,1152,0C1120,0,1088,0,1056,0C1024,0,992,0,960,0C928,0,896,0,864,0C832,0,800,0,768,0C736,0,704,0,672,0C640,0,608,0,576,0C544,0,512,0,480,0C448,0,416,0,384,0C352,0,320,0,288,0C256,0,224,0,192,0C160,0,128,0,96,0C64,0,32,0,16,0L0,0Z"></path></svg>